<svg xmlns="http://www.w3.org/2000/svg" xmlns:xlink="http://www.w3.org/1999/xlink" width="195.749" height="40.213" viewBox="0 0 195.749 40.213">
  <defs>
    <linearGradient id="linear-gradient" x1="0.636" y1="1.096" x2="0.251" y2="-0.128" gradientUnits="objectBoundingBox">
      <stop offset="0" stop-color="#00aee6"/>
      <stop offset="0.223" stop-color="#00aee6"/>
      <stop offset="0.383" stop-color="#00a9e6"/>
      <stop offset="0.545" stop-color="#009de6"/>
      <stop offset="0.707" stop-color="#0089e6"/>
      <stop offset="0.868" stop-color="#016de6"/>
      <stop offset="0.999" stop-color="#0251e6"/>
    </linearGradient>
  </defs>
  <g id="Group_5997" data-name="Group 5997" transform="translate(-125.784 -360.372)">
    <g id="Group_5999" data-name="Group 5999" transform="translate(125.787 360.372)">
      <g id="Group_5998" data-name="Group 5998" transform="translate(0.007)">
        <g id="Group_5997-2" data-name="Group 5997">
          <path id="Path_56019" data-name="Path 56019" d="M157.213,363.531q-2.719-3.158-8.068-3.159H126l10.817,8.991h8.35a4.167,4.167,0,0,1,2.439.545,2.587,2.587,0,0,1,.724,2.158v1.876q0,2.442-3.164,2.442h-8.349l-11.013,8.6h21.047a32.731,32.731,0,0,0,6.059-.351,8.062,8.062,0,0,0,3.555-1.93,10.67,10.67,0,0,0,3.381-8.378v-2.238Q159.844,366.513,157.213,363.531Z" transform="translate(-125.802 -360.372)" fill="url(#linear-gradient)"/>
        </g>
      </g>
      <path id="Path_56020" data-name="Path 56020" d="M125.79,403.438v15.6l11.019-8.6v-7.015Z" transform="translate(-125.79 -378.829)" fill="#50bf34"/>
      <path id="Path_56021" data-name="Path 56021" d="M136.809,405.712v-2.263H125.79Z" transform="translate(-125.79 -378.84)" fill="#097538"/>
    </g>
    <g id="Group_6000" data-name="Group 6000" transform="translate(176.796 369.354)">
      <path id="Path_56022" data-name="Path 56022" d="M215.077,376.1h13.677a4.764,4.764,0,0,1,3.818,1.5,5.932,5.932,0,0,1,1.245,4.048V382.7a5.05,5.05,0,0,1-1.6,3.965,3.82,3.82,0,0,1-1.683.913,15.487,15.487,0,0,1-2.867.166H220.6v3.92h-5.525Zm5.45,7.579h6.342q1.5,0,1.5-1.156v-.888a1.224,1.224,0,0,0-.343-1.021,1.974,1.974,0,0,0-1.155-.258h-6.342Z" transform="translate(-215.077 -376.095)" fill="#fff"/>
      <path id="Path_56023" data-name="Path 56023" d="M249.856,391.662h-5.809l8.589-15.567H258.9l8.567,15.567h-5.932l-1.494-2.65h-8.817Zm5.746-10.787-2.7,4.814h5.268Z" transform="translate(-227.497 -376.095)" fill="#fff"/>
      <path id="Path_56024" data-name="Path 56024" d="M304.764,382.426A2.888,2.888,0,0,1,303.7,385a4.447,4.447,0,0,1-.773.415,3.109,3.109,0,0,1,1.841,3.03v3.217H299.5v-3.18q0-.889-1.033-.888h-7.03v4.069h-5.152V376.1h13.682a5.188,5.188,0,0,1,3.094.789,3.973,3.973,0,0,1,1.7,3.383Zm-13.327,1.285h6.8q1.522,0,1.523-.981v-1.294a1.059,1.059,0,0,0-.282-.866,1.626,1.626,0,0,0-.97-.219h-7.073Z" transform="translate(-245.605 -376.095)" fill="#fff"/>
      <path id="Path_56025" data-name="Path 56025" d="M334.15,387.705a2.639,2.639,0,0,0,1.143-.142.689.689,0,0,0,.29-.606v-.3a.935.935,0,0,0-.249-.728,3.454,3.454,0,0,0-1.474-.162H327.4a6.675,6.675,0,0,1-3.654-.811,3.628,3.628,0,0,1-1.495-3.286v-.748q0-4.137,3.921-4.7a25.039,25.039,0,0,1,3.05-.125h4.626a16.045,16.045,0,0,1,2.966.187,4.1,4.1,0,0,1,2.293,1.3,3.553,3.553,0,0,1,.861,2.42v.125H328.513a1.581,1.581,0,0,0-.829.146.7.7,0,0,0-.353.564v.271q0,.606.415.731a1.771,1.771,0,0,0,.455.042h7.247a6.389,6.389,0,0,1,3.333.663q1.615,1.035,1.616,3.833v.684a7.1,7.1,0,0,1-.125,1.513,3.743,3.743,0,0,1-.892,1.7,4.822,4.822,0,0,1-2.9,1.285,18.038,18.038,0,0,1-2.322.1h-6.531a7.261,7.261,0,0,1-3.878-.775,2.977,2.977,0,0,1-.985-1.12,3.08,3.08,0,0,1-.383-1.456v-.607Z" transform="translate(-261.026 -376.095)" fill="#fff"/>
      <path id="Path_56026" data-name="Path 56026" d="M370.452,376.1q2.185,0,2.83.083a4.11,4.11,0,0,1,2.393,1.017,5.445,5.445,0,0,1,1.54,3.092,22.475,22.475,0,0,1,.083,2.553v3.176q0,3.425-1.473,4.442a6.362,6.362,0,0,1-2.49,1.037,15.35,15.35,0,0,1-2.614.166h-8.4a7.372,7.372,0,0,1-4.73-1.391q-1.308-1.038-1.308-4.172v-.809a4.608,4.608,0,0,1-.017-.644l.017-1.806a16.724,16.724,0,0,1,.166-2.781,4.31,4.31,0,0,1,3.663-3.84,15.355,15.355,0,0,1,2.352-.125Zm-6.326,4.256a3.207,3.207,0,0,0-1.682.289,1.968,1.968,0,0,0-.624,1.692v3.012a8.4,8.4,0,0,0,.023.887q.187,1.176,1.89,1.176h6.128q1.911,0,1.911-1.671V381.9q0-1.547-1.933-1.547Z" transform="translate(-275.606 -376.095)" fill="#fff"/>
      <path id="Path_56027" data-name="Path 56027" d="M402.3,391.662h-5.376V376.1h7.57l8.109,10.153V376.1h5.152v15.567H410.3l-8-10Z" transform="translate(-293.039 -376.095)" fill="#fff"/>
      <path id="Path_56028" data-name="Path 56028" d="M448.568,387.705a2.633,2.633,0,0,0,1.142-.142.688.688,0,0,0,.29-.606v-.3a.935.935,0,0,0-.249-.728,3.456,3.456,0,0,0-1.474-.162h-6.456a6.673,6.673,0,0,1-3.654-.811,3.628,3.628,0,0,1-1.494-3.286v-.748q0-4.137,3.921-4.7a25.037,25.037,0,0,1,3.049-.125h4.626a16.05,16.05,0,0,1,2.966.187,4.1,4.1,0,0,1,2.292,1.3,3.555,3.555,0,0,1,.861,2.42v.125H442.931a1.581,1.581,0,0,0-.829.146.7.7,0,0,0-.353.564v.271q0,.606.414.731a1.778,1.778,0,0,0,.456.042h7.247a6.388,6.388,0,0,1,3.333.663q1.615,1.035,1.615,3.833v.684a7.14,7.14,0,0,1-.124,1.513,3.744,3.744,0,0,1-.892,1.7,4.818,4.818,0,0,1-2.9,1.285,18.043,18.043,0,0,1-2.322.1h-6.531a7.261,7.261,0,0,1-3.878-.775,2.977,2.977,0,0,1-.985-1.12,3.073,3.073,0,0,1-.383-1.456v-.607Z" transform="translate(-310.079 -376.095)" fill="#fff"/>
    </g>
    <path id="Path_56029" data-name="Path 56029" d="M136.8,405.712v-2.263H125.784Z" transform="translate(0 -18.468)" fill="#087538"/>
  </g>
</svg>
